<?xml version="1.0" encoding="UTF-8"?>
<svg width="46px" height="46px" viewBox="0 0 46 46" version="1.1" xmlns="http://www.w3.org/2000/svg" xmlns:xlink="http://www.w3.org/1999/xlink">
    <g id="页面-1" stroke="none" stroke-width="1" fill="none" fill-rule="evenodd">
        <g id="登录页" transform="translate(-715.000000, -145.000000)">
            <g id="编组-13" transform="translate(709.000000, 145.000000)">
                <g id="logo大" transform="translate(6.000000, 0.000000)">
                    <rect id="矩形" stroke="#979797" fill="#D8D8D8" opacity="0" x="0.5" y="0.5" width="45" height="45"></rect>
                    <g id="编组" transform="translate(3.285714, 1.642857)">
                        <path d="M20.3962264,0 C31.6607512,0 40.7924528,9.13170161 40.7924528,20.3962264 C40.7924528,25.8075482 38.6851222,30.7266766 35.2463504,34.377722 L29.7185622,28.8505886 C31.7458394,26.6165246 32.9811321,23.6506345 32.9811321,20.3962264 C32.9811321,13.4457749 27.3466779,7.81132075 20.3962264,7.81132075 C13.4457749,7.81132075 7.81132075,13.4457749 7.81132075,20.3962264 C7.81132075,27.3466779 13.4457749,32.9811321 20.3962264,32.9811321 C21.3367953,32.9811321 22.2532646,32.8779493 23.1349323,32.6822858 L29.2351443,38.7829409 C26.561054,40.070785 23.5629175,40.7924528 20.3962264,40.7924528 C9.13170161,40.7924528 0,31.6607512 0,20.3962264 C0,9.13170161 9.13170161,0 20.3962264,0 Z" id="形状结合" fill="#287AFA"></path>
                        <path d="M20.5357143,9.85714286 C26.4333264,9.85714286 31.2142857,14.6381021 31.2142857,20.5357143 C31.2142857,24.4269482 29.1329731,27.8320656 26.0228554,29.6985588 L24.8652022,28.4685861 C27.6695237,26.9348348 29.5714286,23.9573814 29.5714286,20.5357143 C29.5714286,15.5454271 25.5260015,11.5 20.5357143,11.5 C15.5454271,11.5 11.5,15.5454271 11.5,20.5357143 C11.5,25.4744102 15.4622134,29.4876815 20.3812467,29.5701349 L21.8538969,31.1337302 C21.4219567,31.1869045 20.9820331,31.2142857 20.5357143,31.2142857 C14.6381021,31.2142857 9.85714286,26.4333264 9.85714286,20.5357143 C9.85714286,14.6381021 14.6381021,9.85714286 20.5357143,9.85714286 Z" id="形状结合" fill="#1067EE"></path>
                        <path d="M20.3966774,14.3212057 L36.3352283,30.2597566 C38.6929602,32.6174885 40.0175202,35.8152592 40.0175202,39.1495957 L40.0175202,43.8743001 C40.0175202,43.9847571 39.9279772,44.0743001 39.8175202,44.0743001 C39.7644769,44.0743001 39.7136061,44.0532288 39.6760989,44.0157215 L23.737548,28.0771706 C21.3798161,25.7194387 20.0552561,22.521668 20.0552561,19.1873315 L20.0552561,14.4626271 C20.0552561,14.3521701 20.1447991,14.2626271 20.2552561,14.2626271 C20.3082994,14.2626271 20.3591701,14.2836984 20.3966774,14.3212057 Z" id="矩形" fill="#EEB410"></path>
                    </g>
                </g>
            </g>
        </g>
    </g>
</svg>